<?xml version="1.0" standalone="no"?>
<!DOCTYPE svg PUBLIC "-//W3C//DTD SVG 20010904//EN"
 "http://www.w3.org/TR/2001/REC-SVG-20010904/DTD/svg10.dtd">
<svg version="1.0" xmlns="http://www.w3.org/2000/svg"
 width="500.000000pt" height="500.000000pt" viewBox="0 0 500.000000 500.000000"
 preserveAspectRatio="xMidYMid meet">

<g transform="translate(0.000000,500.000000) scale(0.100000,-0.100000)"
fill="#000000" stroke="none">
<path d="M1515 3871 l20 -10 -20 -1 c-11 0 6 -11 38 -23 36 -14 64 -32 76 -50
9 -15 20 -25 23 -21 3 3 5 -1 5 -8 -1 -7 4 -39 11 -71 l13 -57 47 26 c26 15
56 33 68 40 12 7 50 25 85 39 35 15 79 42 98 61 36 35 83 54 139 54 22 0 32 5
32 15 0 13 -39 15 -295 15 -256 0 -295 -2 -295 -15 0 -8 -4 -15 -10 -15 -5 0
-9 6 -7 12 1 7 -9 14 -23 15 -22 2 -23 2 -5 -6z"/>
<path d="M3010 3866 c0 -9 18 -15 54 -19 119 -12 173 -68 162 -166 -4 -31 -7
-64 -8 -73 -1 -10 -6 -18 -11 -18 -5 0 -4 -7 3 -15 6 -8 9 -20 5 -27 -4 -7 3
-2 14 12 11 14 21 30 21 35 0 6 7 -1 14 -15 8 -14 12 -29 9 -34 -4 -5 -2 -6 4
-3 5 3 8 20 5 37 -5 34 3 38 31 13 19 -17 20 -17 14 0 -5 12 2 27 20 45 15 15
26 31 25 36 -2 5 4 4 12 -4 17 -14 22 -25 7 -15 -5 3 -13 0 -16 -6 -5 -7 0
-10 11 -7 12 2 18 11 16 22 -3 14 1 17 13 12 11 -4 14 -2 8 7 -16 26 -12 39 6
23 16 -15 19 -15 31 -1 7 8 18 15 24 15 7 0 23 10 35 21 18 17 20 23 9 31 -10
8 -10 9 2 5 8 -2 14 -10 12 -16 -1 -7 15 -2 37 11 22 12 38 26 35 29 -2 4 3
10 12 13 8 3 12 2 9 -4 -4 -6 5 -5 20 2 14 6 24 17 21 24 -3 8 0 11 9 7 8 -3
18 2 21 11 3 9 16 15 28 15 16 -1 17 -2 4 -6 -10 -2 -18 -9 -18 -14 0 -6 8 -5
20 1 11 6 18 15 15 21 -4 5 -153 9 -376 9 -304 0 -369 -2 -369 -14z"/>
<path d="M1456 3861 c-4 -5 3 -7 14 -4 23 6 26 13 6 13 -8 0 -17 -4 -20 -9z"/>
<path d="M2300 3770 c-102 -14 -208 -40 -300 -72 -378 -133 -680 -438 -804
-810 -40 -119 -57 -212 -63 -348 -7 -174 -5 -176 112 -115 50 26 93 52 97 58
3 6 9 49 13 96 37 484 297 888 688 1071 145 68 228 85 417 85 142 0 177 -3
250 -23 96 -26 218 -81 303 -136 l58 -36 24 26 c14 15 25 31 25 35 0 27 -240
118 -392 149 -115 24 -329 34 -428 20z"/>
<path d="M3345 3631 c-3 -5 -2 -12 3 -15 5 -3 9 1 9 9 0 17 -3 19 -12 6z"/>
<path d="M3190 3555 c0 -8 -5 -15 -11 -15 -5 0 -7 -5 -4 -10 4 -6 10 -8 14 -5
13 7 21 45 10 45 -5 0 -9 -7 -9 -15z"/>
<path d="M3163 3499 c-2 -23 3 -25 10 -4 4 8 3 16 -1 19 -4 3 -9 -4 -9 -15z"/>
<path d="M1785 3375 l-95 -94 0 -300 c0 -263 2 -300 15 -295 8 4 15 10 15 15
0 5 5 9 10 9 6 0 29 12 53 27 23 14 48 26 54 26 7 0 13 4 13 9 0 5 11 13 25
18 l25 10 0 335 c0 225 -3 335 -10 335 -6 0 -53 -43 -105 -95z"/>
<path d="M3710 2452 c-30 -15 -59 -33 -63 -39 -4 -7 -15 -13 -23 -13 -8 0 -26
-10 -39 -22 -18 -18 -27 -44 -40 -118 -28 -169 -109 -367 -208 -515 -165 -245
-420 -418 -695 -471 -187 -36 -455 0 -611 80 -18 10 -35 16 -37 13 -2 -2 -1
-18 2 -35 6 -30 12 -34 83 -56 126 -39 215 -51 386 -50 179 1 295 20 452 75
425 148 756 520 842 946 21 99 28 234 14 232 -5 0 -33 -12 -63 -27z"/>
<path d="M2907 2003 c-4 -3 -7 -11 -7 -17 0 -6 5 -5 12 2 6 6 9 14 7 17 -3 3
-9 2 -12 -2z"/>
<path d="M2915 1980 c-4 -6 -13 -9 -21 -6 -8 3 -14 1 -14 -4 0 -6 -5 -10 -12
-10 -6 0 -26 -11 -44 -25 -18 -14 -38 -25 -44 -25 -6 0 -8 -6 -5 -12 4 -7 0
-5 -8 5 -8 9 -18 17 -23 17 -4 0 -3 -5 4 -12 24 -24 11 -31 -15 -7 -28 25 13
-30 185 -248 l105 -132 46 38 c25 22 64 57 85 80 35 36 38 42 25 58 -79 101
-224 267 -231 266 -4 -2 -7 2 -5 8 3 16 -20 23 -28 9z"/>
<path d="M3270 1395 l-94 -64 -2 -55 c-2 -53 6 -70 22 -44 4 7 3 8 -4 4 -7 -4
-12 -2 -12 3 0 6 5 11 11 11 6 0 30 12 53 28 22 15 60 36 83 47 24 11 43 23
43 28 0 4 7 7 15 7 8 0 15 5 15 11 0 6 9 8 21 4 19 -6 18 -2 -11 39 -18 25
-36 46 -39 46 -3 0 -49 -29 -101 -65z"/>
<path d="M1885 1398 c-11 -6 -23 -16 -27 -22 -5 -7 -8 -6 -8 3 0 12 -3 11 -12
-2 -7 -9 -33 -27 -58 -40 -70 -35 -100 -58 -100 -76 0 -13 -2 -14 -9 -2 -8 12
-13 7 -26 -21 -10 -19 -29 -42 -44 -51 -37 -22 -111 -47 -139 -47 -13 0 -20
-4 -17 -10 4 -6 133 -10 356 -10 304 0 349 2 349 15 0 10 -10 15 -27 15 -118
0 -204 94 -215 233 -1 15 -3 27 -3 27 0 0 -9 -6 -20 -12z"/>
<path d="M2986 1142 c-3 -5 8 -6 25 -4 16 2 29 6 29 8 0 8 -49 4 -54 -4z"/>
<path d="M2520 246 c0 -2 8 -10 18 -17 15 -13 16 -12 3 4 -13 16 -21 21 -21
13z"/>
<path d="M2961 234 c0 -11 3 -14 6 -6 3 7 2 16 -1 19 -3 4 -6 -2 -5 -13z"/>
</g>
</svg>
